<svg xmlns="http://www.w3.org/2000/svg" class="img-fluid" id="outputsvg" style="transform: matrix(1, 0, 0, 1, 0, 0); transform-origin: 50% 50%; cursor: move; max-height: 345.46px; transition: transform 200ms ease-in-out 0s;" width="500" height="500" viewBox="0 0 5000 5000"><g id="lWaHquQneA4yycI3nRwYOK" fill="rgb(255,255,255)" style="transform: none;"><g style="transform: none;"><path id="p55WNaWes" d="M3067 4759 c-77 -18 -167 -74 -322 -199 -82 -66 -97 -75 -148 -84 -48 -9 -144 17 -311 84 -70 27 -159 59 -199 70 -77 22 -206 27 -238 10 -28 -15 -54 -74 -90 -197 -51 -176 -81 -224 -236 -370 -74 -70 -141 -139 -149 -154 -17 -34 -18 -92 -3 -122 7 -12 33 -53 58 -91 l46 -69 2 -127 c1 -138 -11 -224 -50 -335 -44 -128 -119 -255 -150 -255 -7 0 -32 14 -56 30 -63 43 -104 41 -151 -9 -49 -51 -80 -117 -87 -185 -6 -54 -5 -56 34 -96 23 -22 50 -40 62 -40 26 0 26 5 -1 43 -30 41 -37 141 -14 185 42 81 95 92 172 38 111 -79 241 -126 346 -126 101 0 181 62 225 174 16 40 39 77 53 88 36 26 166 46 430 64 187 13 265 14 460 5 477 -23 471 -21 516 -169 48 -161 95 -201 244 -210 110 -6 152 7 231 69 70 55 89 76 89 96 0 23 -48 15 -66 -12 -44 -67 -147 9 -199 146 -44 117 -106 230 -155 283 -45 48 -45 48 -51 140 -5 60 -14 106 -28 136 -16 35 -19 57 -15 95 11 96 -46 168 -145 184 -63 10 -79 23 -92 75 -17 69 -71 117 -131 118 -44 1 -66 13 -108 60 -26 29 -48 42 -85 51 -40 10 -54 19 -70 46 -34 57 -70 89 -115 101 -85 23 -150 -11 -196 -102 -18 -35 -35 -54 -59 -64 -25 -10 -36 -23 -44 -49 -16 -58 -49 -94 -117 -126 -55 -26 -68 -38 -88 -78 -29 -56 -40 -66 -82 -75 -44 -10 -110 -69 -124 -111 -6 -19 -9 -53 -5 -77 4 -26 0 -72 -10 -118 -9 -41 -20 -100 -24 -130 -7 -44 -14 -59 -37 -75 -68 -49 -128 -114 -175 -192 -119 -197 -204 -273 -273 -247 -18 7 -22 44 -6 44 19 0 138 256 155 332 27 124 42 283 33 348 -7 58 -46 152 -68 165 -20 12 -50 84 -50 120 0 30 6 39 43 65 164 118 308 327 357 520 27 105 43 136 80 155 51 26 197 11 245 -25 6 -5 37 -16 70 -25 33 -10 90 -33 126 -51 36 -18 96 -41 134 -49 38 -9 84 -23 103 -31 21 -8 65 -14 111 -13 61 1 69 3 38 9 -42 8 -55 17 -41 29 30 26 346 242 383 261 37 18 56 21 119 18 68 -3 76 -6 101 -34 27 -30 80 -163 121 -304 30 -103 71 -190 125 -266 66 -92 152 -182 196 -204 84 -43 103 -118 49 -200 -31 -47 -82 -117 -113 -154 -18 -21 -18 -21 -13 19 3 22 9 55 12 74 8 43 -12 39 -41 -10 -29 -49 -28 -222 2 -334 12 -44 26 -114 32 -155 12 -79 56 -183 91 -215 28 -25 27 -3 -3 66 -47 108 -82 300 -75 411 6 88 22 123 117 241 62 78 91 133 91 175 0 32 -33 71 -93 110 -86 56 -156 120 -213 195 -53 71 -75 118 -145 307 -92 250 -111 281 -192 305 -56 17 -93 18 -150 4z m-555 -644 c4 -66 5 -141 2 -167 -5 -43 -9 -48 -45 -62 -79 -32 -79 -31 -79 103 0 150 5 174 46 218 57 60 68 47 76 -92z m142 70 c33 -72 62 -305 39 -318 -17 -9 -125 10 -134 24 -6 10 -6 288 1 337 0 2 17 2 37 0 33 -3 40 -8 57 -43z m159 -107 c40 -54 56 -92 68 -167 14 -85 6 -101 -51 -101 -55 0 -70 8 -70 39 0 15 -9 61 -20 102 -20 75 -26 140 -13 152 18 19 63 6 86 -25z m-449 -6 c8 -13 -19 -241 -30 -251 -16 -16 -83 -30 -90 -20 -10 17 7 131 28 186 23 63 76 111 92 85z m663 -125 c25 -25 60 -144 50 -170 -5 -14 -20 -17 -71 -17 -79 0 -87 10 -94 119 -4 64 -2 76 14 88 25 19 72 9 101 -20z m-809 -79 c6 -70 -54 -148 -113 -148 -79 0 -50 131 38 170 57 27 71 23 75 -22z m287 -223 c8 -195 4 -233 -29 -271 -24 -28 -68 -36 -89 -15 -18 18 -17 415 1 433 15 15 82 36 98 31 8 -3 14 -62 19 -178z m196 175 c17 -10 19 -22 18 -118 0 -128 -14 -330 -22 -339 -4 -3 -28 -8 -54 -10 -42 -4 -52 -1 -77 22 l-29 27 5 200 c4 181 7 202 23 215 22 15 108 17 136 3z m502 -21 c43 -22 87 -72 87 -98 0 -42 -14 -55 -51 -47 -65 13 -142 98 -126 140 7 19 58 21 90 5z m-313 -47 c19 -15 22 -30 27 -117 5 -103 -8 -260 -26 -307 l-10 -27 -58 16 c-32 9 -62 20 -68 25 -11 10 -8 260 5 328 17 87 25 100 69 100 22 0 48 -8 61 -18z m-850 -16 c0 -43 -18 -75 -61 -106 -46 -33 -83 -39 -93 -14 -8 20 5 42 46 80 71 67 108 80 108 40z m295 -194 c0 -238 1 -234 -70 -230 l-40 3 -3 90 c-4 109 13 307 28 336 9 16 19 19 48 17 l37 -3 0 -213z m784 134 c8 -10 9 -52 3 -154 -9 -157 -19 -182 -80 -207 -45 -19 -79 -12 -93 19 -15 31 3 320 21 341 17 20 132 21 149 1z m-937 -18 c7 -49 -10 -326 -21 -346 -9 -16 -21 -22 -46 -22 -57 0 -65 23 -65 178 0 75 5 142 11 153 13 26 68 59 96 59 15 0 23 -7 25 -22z m1072 -58 c44 -39 66 -104 66 -195 0 -58 -4 -75 -21 -94 -30 -32 -94 -26 -122 11 -27 37 -33 115 -13 174 9 26 16 64 16 84 0 60 21 66 74 20z m-1252 -131 c-4 -130 -22 -183 -71 -212 -41 -24 -59 -13 -67 40 -14 96 19 201 83 259 20 19 42 33 48 31 6 -3 9 -45 7 -118z m555 -125 c34 -23 44 -25 97 -20 32 3 64 2 70 -3 6 -5 45 -19 86 -31 l75 -20 17 20 16 20 36 -20 c30 -18 40 -20 75 -10 22 6 53 22 69 35 l29 24 32 -39 c29 -36 36 -40 77 -40 31 0 56 7 76 22 29 20 32 20 44 4 7 -10 11 -37 9 -64 -2 -26 -4 -99 -5 -163 -2 -104 1 -123 24 -180 14 -35 23 -65 21 -67 -9 -10 -53 9 -60 25 -4 10 -18 62 -31 116 -13 54 -29 107 -34 117 -16 30 -151 67 -286 80 -346 31 -929 20 -1057 -20 -84 -26 -137 -75 -161 -148 -20 -59 -46 -89 -46 -51 1 44 28 274 36 292 4 10 18 23 32 28 20 8 29 6 47 -11 41 -39 116 -18 155 45 l21 35 26 -30 c20 -25 32 -30 67 -30 30 0 48 6 61 20 13 15 22 17 36 10 10 -6 38 -10 64 -10 36 0 51 5 68 24 19 20 29 23 72 19 44 -4 53 -2 74 21 14 14 26 26 27 26 2 0 20 -12 41 -26z"/><path id="p1RpoIqPz" d="M3086 4645 c-22 -8 -56 -30 -75 -51 l-36 -36 46 26 c53 30 103 33 154 9 29 -14 44 -34 86 -115 29 -57 55 -97 62 -95 15 6 15 4 -18 111 -36 113 -81 166 -141 166 -21 -1 -57 -7 -78 -15z"/><path id="pfiacEO1g" d="M1923 4555 c-25 -11 -36 -26 -61 -93 -27 -70 -53 -147 -83 -246 l-8 -29 24 23 c14 13 39 60 55 104 17 45 36 94 42 110 7 16 27 44 45 63 40 40 83 44 144 13 30 -16 55 -20 97 -18 l57 3 -61 32 c-85 44 -196 61 -251 38z"/><path id="pwsdXQqyH" d="M3920 2967 c0 -2 22 -17 48 -34 34 -21 65 -54 107 -116 58 -86 58 -87 46 -126 -9 -33 -23 -48 -80 -85 -76 -51 -112 -97 -135 -176 -23 -76 -20 -103 20 -242 37 -128 50 -156 67 -139 6 6 1 31 -13 68 -28 73 -36 184 -21 293 14 103 41 149 109 184 144 74 149 153 20 294 -20 23 -47 47 -60 55 -21 13 -108 32 -108 24z"/><path id="por1JqVUH" d="M2683 2803 c-55 -72 -70 -83 -110 -83 -64 0 -156 29 -186 58 l-29 27 6 -25 c2 -14 7 -59 11 -100 5 -68 33 -207 50 -252 10 -26 -17 -23 -43 5 -12 12 -28 42 -37 67 -9 24 -23 53 -33 63 -28 32 -148 84 -223 98 -123 22 -398 -9 -533 -61 -24 -9 -27 -14 -22 -36 5 -19 -1 -41 -20 -78 -32 -60 -71 -203 -80 -290 -5 -46 -1 -81 16 -146 16 -58 22 -111 21 -167 0 -47 4 -85 9 -88 20 -12 205 -34 285 -34 107 0 323 41 391 74 61 30 128 102 167 181 14 28 38 104 52 170 37 169 45 177 152 159 52 -9 88 11 108 58 36 87 102 437 82 437 -3 0 -19 -16 -34 -37z"/><path id="pmq248zMh" d="M2749 2595 c-4 -5 -21 -55 -39 -110 -39 -122 -64 -172 -89 -180 -11 -3 -47 -5 -81 -4 -35 1 -66 -3 -72 -9 -19 -19 39 -34 117 -30 l70 3 6 -90 c11 -156 58 -291 123 -359 52 -52 162 -108 261 -130 241 -54 341 -68 482 -68 78 0 148 4 154 8 8 4 -2 14 -26 26 -35 19 -37 22 -31 56 3 21 12 62 21 92 22 80 19 215 -10 360 -29 145 -32 232 -10 250 12 10 13 16 3 28 -22 27 -152 81 -222 92 -38 6 -99 17 -138 25 -89 19 -210 19 -318 0 -47 -8 -108 -15 -137 -15 -51 0 -52 0 -55 33 -2 17 -6 28 -9 22z"/><path id="pKhlZngdG" d="M665 2256 c-48 -21 -58 -40 -52 -95 9 -72 37 -120 132 -223 65 -70 85 -98 85 -120 0 -48 -141 -370 -227 -518 -8 -14 -27 -52 -43 -85 -33 -70 -61 -102 -94 -111 -35 -8 -109 27 -136 66 -23 33 -104 90 -126 90 -50 0 30 -84 187 -197 l49 -35 0 -72 c0 -70 10 -96 35 -96 6 0 18 15 26 33 28 64 98 40 231 -82 55 -50 117 -81 164 -81 13 0 44 -7 70 -16 30 -10 50 -12 56 -6 12 12 -56 53 -129 76 -65 21 -194 108 -290 195 -31 27 -31 93 -1 141 81 133 283 543 297 605 6 27 11 30 52 33 42 3 50 0 91 -40 24 -24 64 -51 89 -60 84 -32 344 -149 399 -180 48 -27 68 -32 157 -38 75 -4 107 -11 121 -23 10 -9 34 -17 52 -17 18 0 76 -14 129 -31 53 -17 119 -33 146 -36 32 -3 70 -17 105 -38 30 -18 73 -38 95 -43 45 -11 400 -9 458 3 26 5 54 3 93 -10 62 -19 43 -21 314 25 69 11 158 20 198 20 49 0 84 6 105 17 22 11 61 17 122 18 68 1 102 7 139 23 34 16 68 22 117 22 63 0 76 4 198 65 136 68 189 109 170 131 -14 17 -63 -1 -183 -65 -100 -54 -156 -72 -291 -95 -49 -8 -126 -22 -170 -30 -44 -8 -134 -22 -200 -31 -66 -9 -178 -25 -250 -35 -151 -23 -205 -24 -289 -9 -51 10 -67 9 -100 -5 -47 -20 -120 -21 -172 -2 -27 9 -47 10 -64 4 -14 -5 -46 -14 -72 -19 -53 -12 -125 4 -208 45 -25 13 -71 26 -103 29 -33 3 -74 15 -95 28 -35 20 -127 45 -332 89 -109 24 -212 61 -325 118 -49 25 -128 58 -175 74 -93 31 -264 128 -280 158 -5 10 -9 63 -8 117 1 87 -2 103 -25 149 -33 65 -69 107 -122 144 -53 37 -82 43 -120 26z m100 -56 c78 -48 139 -190 118 -277 -13 -57 -34 -54 -104 19 -82 85 -119 150 -119 210 0 69 41 87 105 48z"/><path id="pfByBIRMx" d="M961 1654 c-12 -15 -21 -31 -21 -36 0 -6 -22 -60 -49 -122 -141 -321 -185 -433 -189 -483 -2 -29 -1 -53 4 -53 15 0 53 63 73 119 31 89 55 94 63 12 6 -62 21 -81 64 -81 43 0 48 8 172 262 75 152 102 217 102 245 l0 38 -24 -36 c-13 -19 -58 -100 -101 -179 -87 -164 -127 -230 -137 -230 -14 0 -8 210 8 288 8 42 31 112 50 155 35 76 40 117 18 124 -7 2 -21 -8 -33 -23z"/><path id="p12KpqS7I9" d="M1227 1456 c-59 -55 -127 -252 -127 -371 0 -87 23 -169 53 -190 29 -20 80 -19 100 3 36 40 31 72 -22 142 -62 80 -69 110 -41 173 11 26 24 70 27 97 7 57 28 80 68 72 25 -4 25 -6 25 -103 0 -98 8 -121 34 -100 19 16 31 187 16 226 -28 73 -85 95 -133 51z m-29 -450 c14 -45 7 -79 -16 -74 -18 3 -29 36 -31 86 -1 48 30 39 47 -12z"/><path id="pFJIMhw1k" d="M4225 1440 c-15 -16 -17 -30 -11 -75 5 -46 3 -57 -10 -62 -11 -4 -23 2 -36 20 -36 50 -149 42 -178 -14 -17 -31 -8 -94 24 -165 33 -74 57 -92 92 -69 14 9 22 21 18 28 -4 7 -23 36 -42 65 -30 47 -33 56 -23 78 9 20 17 25 43 22 26 -3 33 -9 46 -43 19 -53 18 -184 -2 -268 -9 -38 -16 -87 -17 -110 l0 -42 -25 30 c-41 50 -162 335 -166 391 -3 49 -3 49 -38 49 -31 0 -35 -3 -38 -27 -4 -33 -15 -34 -76 -7 -54 23 -83 18 -92 -16 -6 -25 -1 -106 12 -164 10 -49 -14 -37 -47 24 -36 65 -73 103 -114 114 -74 20 -101 -13 -111 -132 -14 -159 61 -357 183 -485 32 -34 47 -42 75 -42 19 0 42 6 52 13 27 20 31 99 11 213 -22 126 -22 126 -10 130 12 5 55 -85 85 -180 13 -39 34 -81 49 -95 l26 -26 3 41 c2 28 -9 72 -34 140 -113 307 -132 382 -103 400 14 8 108 -91 156 -165 42 -64 70 -125 112 -245 32 -92 61 -136 92 -136 20 0 29 20 29 61 0 19 5 29 15 29 8 0 15 -5 15 -11 0 -5 17 -17 37 -26 45 -18 116 -13 143 12 40 36 34 125 -9 125 -21 0 -48 -27 -53 -55 -5 -30 -43 -31 -73 -1 -21 21 -25 34 -25 84 0 33 7 79 16 103 22 59 23 209 2 267 -28 75 9 48 70 -53 148 -241 432 -409 432 -255 0 33 -37 97 -72 124 -18 13 -66 37 -106 51 -58 22 -75 25 -87 15 -8 -7 -21 -10 -29 -7 -25 10 -115 148 -132 202 -21 65 -15 85 27 85 31 0 53 -18 122 -98 32 -38 57 -42 57 -9 0 36 -92 132 -155 161 -65 31 -106 33 -130 6z m-641 -350 c14 -17 33 -56 42 -88 9 -31 27 -91 40 -133 12 -42 26 -114 30 -161 7 -92 2 -105 -41 -94 -18 5 -35 30 -74 109 -27 56 -56 126 -65 156 -18 62 -21 192 -6 222 15 28 45 23 74 -11z m1003 -71 c34 -22 49 -47 34 -62 -14 -14 -62 8 -96 43 -49 51 -11 62 62 19z"/><path id="p7eHHbMM4" d="M1613 1348 c-6 -7 -23 -69 -38 -137 -15 -68 -37 -158 -50 -200 -42 -143 -58 -287 -30 -285 10 0 13 8 40 114 29 111 29 111 54 55 27 -61 67 -105 97 -105 40 0 107 100 120 178 8 51 18 66 38 59 12 -5 16 -21 16 -68 0 -123 51 -251 107 -265 82 -21 86 163 4 227 -46 37 -61 69 -61 137 0 80 28 142 65 142 30 0 55 -43 55 -94 0 -25 7 -39 25 -53 24 -18 24 -19 13 -90 -8 -51 -8 -102 -1 -179 10 -107 10 -107 49 -144 32 -30 50 -38 93 -43 30 -4 62 -14 71 -22 10 -9 21 -12 24 -7 3 5 5 114 5 242 0 194 2 235 15 255 24 37 43 21 48 -40 3 -36 13 -67 31 -94 30 -45 65 -57 52 -18 -4 12 -10 49 -12 81 -4 49 -2 62 13 73 26 19 61 16 85 -8 42 -42 6 -147 -96 -284 -90 -120 -95 -147 -41 -201 31 -31 40 -34 90 -34 67 0 78 15 80 100 1 72 -19 74 -55 5 -14 -27 -31 -50 -37 -49 -29 2 -32 5 -32 30 0 34 15 60 62 112 83 91 112 192 89 310 -13 66 -26 74 -140 83 -55 4 -109 13 -120 19 -18 9 -27 6 -56 -16 l-35 -26 -10 27 c-5 14 -10 30 -10 34 0 12 -33 39 -52 43 -10 2 -26 -11 -40 -32 -33 -49 -49 -48 -78 6 -35 67 -93 98 -145 78 -24 -10 -42 -52 -50 -119 -14 -116 -31 -111 -37 11 -3 54 -9 79 -27 105 -31 45 -66 71 -110 79 -20 4 -43 11 -52 14 -9 4 -21 1 -26 -6z m158 -139 l24 -51 -33 -127 c-37 -142 -52 -171 -87 -171 -33 0 -37 21 -38 169 0 165 26 231 88 231 16 0 28 -13 46 -51z m433 -122 c14 -19 24 -63 37 -159 22 -156 24 -229 7 -246 -19 -19 -114 -16 -122 4 -10 27 -6 155 9 274 22 174 27 183 69 127z m-236 -229 c14 -14 16 -84 3 -93 -18 -10 -41 26 -41 66 0 40 14 51 38 27z"/><path id="p5d34v6K0" d="M3296 1139 c-21 -36 -23 -26 44 -249 74 -247 81 -273 75 -287 -11 -30 -39 -8 -91 72 -66 102 -121 219 -165 349 -17 52 -38 101 -46 108 -19 15 -49 -2 -47 -28 4 -50 48 -303 74 -419 44 -199 60 -287 60 -327 0 -44 22 -56 50 -28 23 23 25 65 5 100 -8 14 -15 53 -15 90 -1 36 -7 82 -14 103 -13 34 -12 39 2 44 10 4 21 -2 31 -18 64 -97 143 -165 201 -171 58 -7 44 153 -32 364 -48 133 -51 149 -51 236 l0 92 -31 0 c-25 0 -36 -7 -50 -31z"/><path id="pR59u8emP" d="M2675 1128 c-39 -35 -45 -164 -17 -330 39 -223 52 -315 52 -365 0 -27 7 -72 15 -99 8 -27 12 -57 9 -67 -6 -20 -17 -20 -99 2 -22 6 -61 11 -87 11 -64 0 -175 25 -250 55 -92 38 -204 65 -266 65 -51 0 -53 -1 -47 -22 12 -40 30 -49 151 -74 66 -14 169 -45 229 -69 101 -40 118 -44 216 -47 100 -3 110 -5 159 -36 l52 -32 39 34 c52 44 94 51 168 31 95 -27 134 -7 97 50 -13 20 -26 24 -102 30 -71 6 -93 5 -121 -9 -60 -29 -70 -5 -92 224 -6 63 -23 180 -37 260 -14 80 -31 181 -39 225 -11 66 -11 82 0 94 20 21 55 4 62 -30 7 -39 31 -37 38 4 17 90 -65 151 -130 95z"/></g></g></svg>