<svg xmlns="http://www.w3.org/2000/svg" class="img-fluid" id="outputsvg" style="transform: none; transform-origin: 50% 50%; cursor: move; max-height: 368.98px;" width="500" height="500" viewBox="0 0 5000 5000"><g id="l3tjOKuONLTCQHG1tPbcxNs" fill="rgb(0,0,0)" style="transform: none;"><g style="transform: none;"><path id="ppZ7a15by" d="M3030 4786 c-88 -23 -121 -45 -362 -230 -60 -46 -65 -48 -114 -43 -28 3 -100 24 -160 47 -243 94 -303 112 -414 122 -173 15 -191 1 -251 -209 -52 -180 -109 -265 -268 -398 -38 -32 -85 -79 -103 -104 -30 -41 -33 -53 -32 -111 1 -70 27 -137 78 -197 14 -17 30 -42 36 -57 23 -62 5 -256 -36 -381 -29 -88 -81 -197 -111 -234 l-20 -24 -31 21 c-24 17 -44 22 -98 22 -66 0 -68 -1 -107 -42 -57 -60 -80 -118 -85 -215 l-5 -83 41 -40 c36 -36 44 -40 91 -40 l51 0 0 39 c0 22 -8 48 -19 62 -25 33 -34 64 -26 99 9 39 51 90 75 90 10 0 46 -21 79 -46 80 -60 178 -93 296 -101 125 -8 184 7 239 61 29 29 47 59 60 99 23 73 48 104 94 117 108 30 585 67 705 55 34 -3 150 -10 257 -15 286 -13 306 -22 346 -160 29 -101 64 -156 119 -184 32 -17 63 -22 155 -24 137 -5 181 5 245 56 95 73 105 86 105 136 l0 46 -40 0 c-38 0 -40 1 -40 32 0 17 -11 60 -25 94 -39 97 -67 231 -69 324 -1 103 13 136 115 265 71 89 89 130 89 202 0 65 -18 91 -100 146 -88 59 -188 157 -234 230 -33 54 -78 158 -142 332 -43 118 -69 172 -97 203 -43 46 -186 66 -287 38z m121 -228 c25 -17 46 -48 79 -115 l45 -93 42 0 c41 0 42 0 63 -57 61 -165 199 -345 321 -418 18 -11 40 -32 48 -46 13 -24 12 -29 -16 -70 -16 -24 -33 -53 -38 -64 -8 -19 -9 -19 -13 3 -3 20 -8 23 -45 20 -35 -3 -44 -8 -62 -38 -18 -31 -20 -51 -19 -180 0 -117 4 -159 21 -217 12 -40 24 -98 28 -130 10 -91 45 -182 88 -227 37 -39 42 -60 9 -40 -35 22 -91 110 -118 183 -36 102 -96 207 -147 259 -42 42 -42 43 -48 135 -3 51 -13 108 -22 127 -8 19 -17 70 -19 112 -3 58 -8 84 -24 104 -32 44 -66 64 -121 73 -64 10 -80 22 -94 75 -6 22 -20 53 -30 67 -21 30 -85 59 -130 59 -22 0 -41 12 -77 48 -36 38 -56 50 -89 55 -42 7 -61 24 -95 85 -20 38 -64 61 -128 69 -113 13 -178 -20 -221 -114 -14 -32 -30 -49 -54 -59 -25 -10 -36 -23 -46 -51 -20 -63 -48 -92 -118 -126 -54 -26 -69 -39 -86 -73 -28 -58 -41 -71 -78 -78 -42 -8 -106 -61 -123 -102 -8 -20 -14 -70 -14 -121 0 -49 -7 -110 -15 -137 -8 -27 -15 -65 -15 -84 0 -26 -7 -41 -31 -61 -97 -82 -132 -119 -170 -179 -85 -134 -111 -170 -156 -213 -25 -24 -44 -39 -42 -34 2 6 25 53 50 105 60 124 75 172 96 310 31 213 20 346 -37 425 -16 22 -39 57 -50 79 l-21 38 32 27 c125 102 170 148 238 245 22 33 41 52 41 43 0 -13 9 -17 38 -17 45 0 67 28 107 135 40 108 66 154 96 176 28 20 28 20 68 -1 31 -15 59 -20 126 -20 79 0 85 1 85 21 l0 21 33 -20 c17 -11 82 -35 142 -53 88 -26 132 -33 223 -36 l112 -4 0 35 c0 19 -5 36 -11 38 -8 3 125 104 153 116 4 2 8 -9 8 -23 0 -27 1 -27 48 -23 28 3 62 15 86 31 47 33 54 33 97 5z m-525 -406 c18 -41 43 -169 44 -219 0 -30 -3 -33 -28 -33 -56 0 -64 22 -56 168 4 72 11 129 16 126 4 -3 15 -22 24 -42z m-167 -224 c-12 -10 -25 -18 -30 -18 -16 0 -10 177 6 217 34 81 40 74 43 -58 3 -117 1 -125 -19 -141z m335 105 c46 -70 71 -172 46 -188 -21 -13 -50 6 -50 34 0 15 -6 51 -14 81 -25 102 -27 110 -16 110 5 0 21 -17 34 -37z m-472 -95 c-5 -66 -16 -98 -34 -98 -14 0 -5 74 15 123 9 20 18 37 20 37 2 0 1 -28 -1 -62z m660 -9 c22 -12 57 -82 58 -116 0 -19 -6 -23 -29 -23 -16 0 -36 7 -45 15 -25 25 -34 135 -11 135 4 0 15 -5 27 -11z m-810 -106 c-21 -40 -56 -68 -72 -58 -16 10 16 61 52 83 18 12 34 19 36 17 2 -2 -6 -20 -16 -42z m500 -34 c20 -11 20 -16 14 -178 -9 -192 -11 -208 -38 -222 -17 -9 -25 -6 -50 18 l-30 28 5 170 c5 146 8 171 23 182 22 16 49 17 76 2z m-197 -162 c7 -161 0 -204 -38 -236 -30 -24 -39 28 -35 201 5 162 11 188 48 188 16 0 18 -16 25 -153z m754 99 c14 -14 22 -28 19 -31 -8 -8 -69 37 -87 64 l-15 24 29 -16 c17 -8 41 -27 54 -41z m-368 -5 c23 -19 24 -24 23 -153 -1 -73 -7 -152 -13 -176 -12 -42 -13 -43 -44 -36 -18 3 -35 8 -39 11 -11 6 -10 197 1 263 11 65 27 110 40 110 5 0 19 -9 32 -19z m-551 -170 c0 -149 -2 -171 -18 -191 -29 -36 -42 -17 -42 63 1 102 18 264 30 287 23 43 30 4 30 -159z m777 97 c12 -20 3 -209 -12 -245 -14 -33 -64 -67 -81 -55 -6 4 -13 14 -17 23 -9 27 10 259 23 275 15 17 76 19 87 2z m-939 -140 c-3 -73 -11 -146 -17 -163 l-13 -30 -19 24 c-16 20 -19 40 -19 133 0 108 0 110 29 139 16 16 33 29 37 29 3 0 4 -60 2 -132z m1126 -16 c20 -58 20 -112 0 -140 -23 -33 -53 -24 -77 22 -19 36 -19 40 -4 90 10 29 17 68 17 86 l0 33 24 -23 c14 -12 32 -43 40 -68z m-1313 -123 c-6 -19 -21 -45 -35 -58 l-24 -22 -6 25 c-9 37 11 115 42 161 l27 40 3 -55 c2 -30 -1 -71 -7 -91z m659 -79 c37 0 91 -10 138 -24 91 -29 256 -34 324 -10 36 13 41 12 61 -7 19 -18 33 -20 105 -17 l82 3 0 -90 0 -90 -18 34 c-11 23 -28 38 -47 44 -16 4 -52 15 -80 23 -124 36 -664 54 -1035 34 -194 -10 -275 -28 -337 -76 l-36 -27 6 48 c9 64 22 80 50 60 39 -27 128 -15 170 23 14 13 35 16 101 13 52 -2 86 1 90 8 4 6 38 11 79 11 45 0 80 5 92 14 11 7 45 17 75 21 30 4 62 11 70 15 8 5 22 4 32 -1 9 -5 44 -9 78 -9z"/><path id="p8eSWope3" d="M3890 2961 c0 -26 4 -41 13 -41 29 0 85 -52 135 -124 28 -42 52 -80 52 -85 0 -10 -47 -52 -98 -86 -90 -60 -138 -172 -130 -304 5 -74 58 -271 81 -299 6 -8 25 -12 46 -10 34 3 36 5 39 41 2 21 -6 62 -17 92 -29 76 -35 146 -22 238 14 98 43 143 125 189 73 41 98 76 104 143 5 62 -14 104 -83 185 -66 76 -93 92 -176 98 l-69 5 0 -42z"/><path id="puoN4DQes" d="M2653 2833 c-55 -72 -73 -84 -112 -77 -48 8 -113 37 -130 57 -8 10 -28 17 -48 17 l-35 0 6 -92 c4 -51 9 -105 12 -121 l6 -27 -47 31 c-89 60 -150 74 -330 73 -184 0 -303 -15 -401 -48 l-69 -23 -5 -45 c-3 -24 -13 -56 -22 -70 -27 -41 -69 -215 -75 -309 -4 -67 -1 -105 16 -176 12 -53 21 -124 21 -171 0 -45 5 -84 10 -87 22 -14 210 -34 312 -35 132 0 357 39 427 75 89 45 171 157 197 271 9 38 22 92 30 121 14 50 15 52 40 43 14 -6 59 -10 100 -10 l74 0 0 -60 c0 -140 58 -318 124 -385 72 -71 216 -131 361 -151 28 -3 79 -13 115 -21 99 -23 242 -33 373 -26 l117 6 0 37 c0 32 -4 39 -30 50 -35 14 -34 12 -15 87 24 91 19 274 -10 423 -29 146 -30 166 -10 186 21 21 19 77 -3 97 -102 92 -499 153 -732 112 -123 -22 -130 -21 -130 15 0 27 -3 30 -31 30 -26 0 -30 3 -24 18 4 9 9 63 12 120 l6 102 -36 0 c-30 0 -41 -6 -64 -37z"/><path id="p10CgZilie" d="M637 2290 c-51 -15 -57 -27 -57 -109 0 -103 27 -159 130 -268 44 -47 80 -94 80 -103 0 -35 -140 -345 -216 -480 -8 -14 -30 -54 -48 -90 -19 -36 -44 -74 -55 -85 -21 -19 -23 -19 -56 -1 -18 10 -48 36 -65 57 -38 48 -97 79 -149 79 -42 0 -51 -10 -51 -60 0 -23 16 -41 86 -100 48 -40 107 -86 131 -104 l45 -31 -7 -63 c-9 -80 7 -102 70 -102 38 0 44 3 55 30 7 16 17 30 23 30 13 0 108 -71 163 -122 45 -41 91 -61 169 -73 28 -4 55 -11 62 -17 6 -5 33 -8 60 -6 l48 3 0 40 c0 38 -2 41 -50 65 -28 14 -73 33 -101 42 -27 10 -76 36 -107 58 l-57 41 20 29 c11 16 26 43 34 61 l13 32 14 -29 c13 -27 18 -29 80 -32 77 -3 81 0 133 103 l35 70 1 -84 c0 -111 24 -199 57 -212 29 -11 133 -12 150 -1 18 11 33 59 33 106 0 41 -26 89 -82 150 -23 25 -22 29 2 94 11 29 20 67 20 86 0 18 7 39 15 46 13 11 15 0 15 -94 l0 -106 44 0 c24 0 48 6 54 13 6 7 14 68 18 135 10 183 -16 228 -130 221 l-56 -4 0 38 0 37 38 -16 c20 -9 68 -29 106 -45 39 -16 99 -46 135 -66 59 -33 75 -37 161 -42 67 -4 104 -11 123 -23 14 -10 40 -18 56 -18 16 0 80 -16 141 -35 61 -19 129 -35 149 -35 25 0 52 -9 77 -27 84 -57 112 -62 359 -62 125 0 236 4 245 9 13 7 29 5 54 -5 41 -17 115 -19 195 -5 211 36 319 50 388 50 54 0 85 5 99 15 12 9 43 14 87 15 62 0 67 -1 53 -16 -10 -9 -16 -33 -16 -59 l0 -44 -24 24 c-57 57 -193 59 -216 3 -5 -13 -9 -17 -9 -10 -1 8 -21 12 -66 12 -61 0 -65 -1 -80 -30 -8 -16 -15 -47 -15 -69 0 -31 58 -254 97 -369 3 -9 -7 0 -22 22 -38 54 -96 183 -135 301 -19 55 -38 103 -44 107 -15 11 -88 10 -105 -1 -10 -7 -12 -23 -8 -62 10 -99 47 -313 76 -439 39 -170 61 -291 61 -333 0 -38 12 -47 61 -47 47 0 69 31 69 97 -1 32 -7 69 -15 83 -8 14 -14 40 -15 59 l0 34 43 -40 c50 -46 120 -76 168 -71 31 3 34 6 42 48 4 25 6 67 3 93 l-5 48 39 -50 c51 -64 65 -71 144 -71 81 0 96 16 96 105 l0 60 19 -42 c22 -47 45 -63 91 -63 l32 0 -4 82 c-3 73 -11 103 -66 245 -34 89 -62 168 -62 175 1 7 21 -9 46 -37 51 -57 109 -170 153 -299 39 -114 59 -136 123 -136 41 0 48 3 53 23 6 21 11 22 101 22 92 0 97 1 120 28 19 22 24 39 24 83 0 80 -10 94 -70 94 -50 0 -80 -17 -80 -46 0 -20 -18 -17 -30 5 -14 27 -13 66 5 107 8 20 18 71 21 115 l7 79 33 -49 c34 -51 166 -175 212 -201 51 -28 97 -40 154 -40 68 0 78 12 78 89 0 62 -10 89 -50 134 -35 41 -168 97 -228 97 -33 0 -41 6 -76 53 -44 59 -81 135 -71 145 4 4 16 -4 27 -18 75 -94 85 -101 135 -98 53 3 60 14 49 74 -15 75 -163 194 -243 194 -32 0 -43 12 -23 25 15 10 12 71 -5 85 -27 22 -96 3 -230 -64 -72 -36 -151 -69 -175 -75 -84 -19 -275 -54 -345 -63 -38 -5 -142 -20 -230 -34 -290 -43 -330 -47 -385 -35 -71 15 -129 14 -185 -5 -44 -16 -52 -16 -100 0 -65 20 -93 20 -141 0 -50 -21 -104 -14 -190 24 -38 17 -93 33 -123 36 -29 3 -70 15 -90 27 -35 21 -76 32 -306 84 -142 31 -206 54 -340 120 -60 29 -145 65 -189 79 -73 23 -258 125 -274 150 -4 6 -7 58 -8 116 -2 121 -19 172 -79 239 -60 66 -121 101 -174 100 -25 0 -59 -5 -74 -9z m128 -151 c24 -22 53 -60 65 -83 20 -43 28 -120 11 -114 -21 7 -115 126 -133 166 -19 43 -18 72 2 72 6 0 30 -18 55 -41z m210 -419 c20 -9 20 -9 0 -9 -12 -1 -26 -6 -33 -13 -9 -9 -12 -9 -12 3 0 29 12 33 45 19z m132 -94 c33 -13 69 -28 79 -34 17 -10 16 -11 -11 -12 -27 0 -35 -8 -71 -67 -23 -38 -68 -119 -100 -182 -54 -103 -59 -110 -62 -81 -5 52 27 189 64 271 19 42 34 88 34 103 0 14 1 26 3 26 2 0 30 -11 64 -24z m3070 -242 c-2 -3 -24 -2 -47 2 l-43 7 44 23 44 22 3 -25 c2 -14 2 -27 -1 -29z m-3439 -145 c-44 -103 -63 -160 -66 -201 l-4 -57 -24 15 c-39 26 -39 50 -1 112 18 31 60 107 93 169 32 62 60 111 61 109 1 -1 -25 -67 -59 -147z m3216 86 c-5 -11 -21 -15 -61 -15 -47 0 -56 -3 -60 -21 -4 -14 -11 -18 -22 -14 -9 4 -38 11 -66 15 -36 5 -42 8 -20 9 17 1 50 11 75 21 57 24 162 27 154 5z m-358 -355 c9 -30 25 -82 35 -115 19 -62 43 -195 36 -201 -8 -8 -108 205 -122 261 -16 63 -20 137 -8 149 12 12 42 -36 59 -94z m520 21 c-6 -27 -14 -52 -17 -55 -3 -4 -15 16 -27 43 l-20 50 36 4 c20 2 37 4 38 5 1 1 -4 -20 -10 -47z"/><path id="pSl8eVDqE" d="M1582 1377 c-6 -7 -23 -67 -37 -133 -14 -65 -36 -157 -49 -204 -45 -155 -66 -311 -46 -335 7 -9 29 -15 51 -15 36 0 38 2 44 38 4 20 11 52 17 70 l10 34 16 -24 c27 -39 45 -47 99 -48 60 0 79 14 118 90 18 33 24 39 25 24 1 -48 43 -158 70 -186 25 -25 36 -28 89 -28 34 0 61 -4 61 -8 0 -5 15 -25 34 -44 29 -29 43 -36 92 -42 32 -4 66 -14 75 -22 25 -23 83 -15 87 12 3 19 5 19 36 -12 33 -33 36 -34 120 -34 103 0 107 4 114 128 4 78 3 84 -17 89 -11 3 -21 7 -21 8 0 2 11 22 24 45 l24 43 11 -54 c25 -128 66 -454 57 -466 0 -1 -48 3 -106 7 -115 10 -153 19 -310 76 -90 32 -120 38 -214 42 l-109 5 5 -52 c3 -29 12 -59 21 -68 8 -8 57 -24 107 -34 114 -23 196 -48 281 -85 54 -24 83 -29 181 -34 108 -6 120 -8 168 -38 67 -42 101 -41 153 3 45 39 72 43 137 20 50 -18 93 -19 121 -5 26 15 27 98 1 130 -18 22 -26 23 -150 24 l-132 1 -9 50 c-5 28 -14 104 -21 170 -6 66 -22 179 -35 250 -13 72 -25 147 -28 168 l-6 37 43 0 c37 0 45 4 50 23 11 40 6 118 -9 146 -17 35 -32 41 -96 41 -52 0 -88 -13 -102 -37 -7 -11 -12 -11 -30 2 -14 10 -45 15 -87 15 -36 0 -83 6 -105 12 -22 6 -64 12 -93 12 -33 1 -52 5 -52 13 0 6 -12 21 -27 33 -37 29 -103 25 -119 -7 -11 -22 -11 -22 -35 14 -13 21 -35 43 -49 50 -37 19 -131 16 -159 -3 -22 -16 -24 -16 -34 2 -22 41 -79 82 -120 88 -114 17 -123 18 -135 3z m165 -215 c8 -34 -50 -252 -68 -252 -9 0 -13 73 -9 174 1 26 11 69 22 95 19 44 20 45 34 26 8 -11 17 -30 21 -43z m253 -83 c0 -27 6 -42 21 -53 18 -12 20 -20 14 -57 l-7 -43 -44 46 c-49 53 -57 94 -28 150 16 30 17 31 30 13 8 -10 14 -36 14 -56z m215 -206 c18 -145 13 -173 -29 -173 -28 0 -36 16 -36 73 0 43 18 205 27 247 5 23 6 24 13 5 5 -11 16 -79 25 -152z m302 151 c3 -8 0 -34 -7 -57 l-13 -42 -15 31 c-17 37 -9 84 14 84 8 0 17 -7 21 -16z m-136 -135 c13 -19 29 -29 46 -29 l25 0 -18 -27 c-10 -16 -35 -50 -56 -76 l-38 -49 1 129 c0 91 3 121 10 104 5 -13 18 -36 30 -52z"/></g></g><g id="l5ZCc7ivdGMOHAgBWc74a3u" fill="rgb(255,255,255)" style="transform: none;"><g style="transform: none;"><path id="pHqj6u60v" d="M0 2500 l0 -2500 2500 0 2500 0 0 2500 0 2500 -2500 0 -2500 0 0 -2500z m3216 2255 c77 -23 102 -57 168 -240 64 -174 109 -278 142 -332 46 -73 146 -171 234 -230 129 -86 131 -137 11 -288 -107 -136 -116 -158 -115 -295 1 -125 24 -241 69 -354 33 -83 31 -99 -8 -54 -38 42 -73 137 -82 221 -4 32 -16 90 -28 130 -29 103 -31 287 -2 336 11 19 26 36 34 39 14 5 14 -9 -5 -95 -4 -19 -2 -33 3 -33 8 0 57 61 88 109 6 9 22 35 38 58 50 77 31 150 -51 192 -38 20 -112 93 -174 171 -50 62 -112 181 -138 265 -59 189 -96 291 -115 319 -25 37 -71 55 -146 55 -65 1 -93 -14 -317 -171 -80 -57 -150 -106 -156 -110 -15 -10 -1 -20 41 -29 27 -5 13 -7 -47 -5 -95 3 -273 50 -344 90 -23 13 -72 34 -111 46 -38 13 -74 26 -80 30 -22 17 -122 40 -173 40 -50 0 -58 -3 -92 -37 -31 -32 -40 -53 -59 -128 -51 -207 -171 -380 -369 -535 -53 -42 -46 -81 40 -207 35 -52 51 -113 50 -193 0 -81 -28 -268 -49 -335 -27 -83 -121 -272 -144 -287 -21 -13 -21 -15 -4 -32 30 -30 80 -15 136 40 47 46 73 82 158 216 38 60 73 97 170 179 24 20 31 35 31 61 0 19 7 59 16 89 10 32 17 86 16 134 0 44 4 95 9 112 13 41 82 101 125 109 38 7 51 20 79 78 17 34 32 47 86 73 70 34 98 63 118 126 10 28 21 41 46 51 24 10 40 27 54 59 69 152 227 155 316 6 16 -27 30 -36 70 -46 37 -9 59 -22 85 -51 39 -44 75 -66 91 -56 18 11 98 -26 118 -54 10 -15 24 -46 30 -68 14 -53 30 -65 94 -75 55 -9 89 -29 121 -73 17 -22 21 -43 21 -99 0 -50 6 -85 19 -112 12 -25 21 -73 25 -132 6 -92 6 -93 48 -135 51 -52 111 -157 147 -259 29 -81 86 -165 127 -188 32 -18 75 -8 84 19 8 25 65 29 65 4 0 -32 -134 -139 -194 -155 -22 -6 -79 -9 -127 -7 -146 7 -198 52 -243 208 -36 124 -70 146 -236 155 -47 3 -174 10 -282 16 -214 12 -493 1 -703 -27 -191 -25 -208 -35 -241 -141 -24 -77 -84 -136 -154 -153 -105 -25 -279 16 -373 88 -94 73 -140 79 -185 27 -50 -56 -57 -166 -13 -221 27 -34 27 -44 0 -44 -12 0 -39 18 -62 40 -39 39 -40 42 -34 94 7 72 35 133 84 184 51 54 97 57 157 12 22 -17 45 -30 52 -30 32 0 106 126 151 255 36 103 49 186 52 315 3 123 -4 155 -45 203 -40 47 -75 125 -76 167 -1 50 41 109 133 185 159 133 216 218 268 398 37 127 62 182 94 198 29 16 146 12 222 -7 33 -9 128 -42 210 -74 270 -105 319 -108 420 -29 207 163 269 202 355 225 61 17 97 17 156 -1z m27 -133 c28 -29 102 -216 91 -233 -14 -23 -33 -1 -74 84 -33 67 -54 98 -79 115 -47 31 -107 29 -156 -3 -20 -15 -39 -24 -41 -22 -11 10 72 72 117 87 62 21 100 14 142 -28z m-1136 -73 c19 -6 55 -23 81 -37 l47 -27 -57 -3 c-42 -2 -67 2 -97 18 -61 31 -104 27 -144 -13 -18 -19 -38 -47 -44 -63 -62 -166 -103 -247 -118 -232 -5 5 89 287 110 328 9 17 26 35 38 39 28 11 141 5 184 -10z m1924 -1607 c35 -23 116 -117 141 -166 34 -66 6 -121 -88 -174 -83 -47 -112 -91 -125 -193 -15 -108 -7 -219 21 -292 14 -37 19 -62 13 -68 -16 -16 -29 9 -62 119 -43 137 -47 185 -26 257 22 78 63 135 127 178 112 74 117 104 37 221 -51 74 -107 126 -136 126 -7 0 -13 5 -13 10 0 16 79 2 111 -18z m-1314 -169 c-8 -102 -68 -351 -92 -387 -29 -43 -63 -53 -126 -37 -79 20 -82 16 -143 -243 -27 -115 -108 -226 -197 -271 -61 -31 -295 -75 -397 -75 -91 1 -271 25 -284 38 -6 6 -8 34 -5 64 3 35 -4 92 -20 168 -18 82 -24 131 -19 170 8 81 53 244 79 287 12 21 22 53 22 72 0 33 2 35 68 57 82 28 172 41 332 49 102 6 132 4 198 -14 78 -20 151 -56 180 -89 9 -10 23 -38 32 -62 9 -25 25 -55 37 -67 26 -28 53 -31 43 -5 -15 39 -45 180 -50 236 -3 34 -8 79 -11 101 l-5 39 23 -21 c34 -32 91 -53 161 -60 68 -6 79 0 140 80 15 21 31 37 34 37 3 0 3 -30 0 -67z m96 -233 c29 0 90 7 137 15 47 8 120 15 163 15 115 0 347 -45 432 -84 84 -39 103 -57 80 -79 -22 -23 -19 -101 10 -247 29 -145 32 -280 10 -360 -9 -30 -18 -72 -22 -92 -5 -35 -3 -38 31 -54 20 -10 36 -21 36 -26 0 -21 -297 -12 -414 13 -50 10 -110 22 -135 25 -125 15 -266 71 -344 135 -68 56 -124 209 -136 374 l-6 90 -70 -3 c-83 -4 -134 11 -116 32 9 11 27 13 66 9 104 -11 119 4 170 172 16 50 33 99 39 110 10 18 11 17 14 -12 3 -33 4 -33 55 -33z m-2040 -300 c61 -41 114 -101 139 -158 16 -37 20 -67 19 -145 0 -54 3 -107 9 -116 15 -29 193 -130 276 -157 44 -14 129 -50 189 -79 134 -66 198 -89 340 -120 230 -52 271 -63 307 -84 21 -13 62 -25 95 -28 32 -3 78 -16 103 -29 85 -42 155 -57 211 -45 28 6 59 16 69 21 13 7 31 5 60 -5 55 -19 116 -19 171 1 38 13 55 14 122 3 86 -14 153 -9 442 35 88 14 192 29 230 34 69 9 256 43 345 63 25 5 94 35 154 66 143 72 181 86 195 69 20 -23 -32 -63 -170 -131 -120 -59 -137 -65 -195 -65 -41 0 -81 -7 -116 -21 -38 -16 -78 -22 -144 -24 -66 -1 -98 -6 -115 -18 -17 -12 -45 -17 -103 -17 -43 0 -135 -9 -205 -21 -69 -11 -157 -25 -194 -31 -60 -10 -76 -9 -122 7 -36 12 -64 15 -86 10 -19 -4 -126 -8 -239 -10 -224 -3 -251 2 -334 58 -25 18 -52 27 -77 27 -20 0 -88 16 -149 35 -61 19 -125 35 -141 35 -16 0 -42 8 -56 18 -19 12 -56 19 -123 23 -84 5 -104 10 -152 37 -54 31 -272 130 -396 179 -41 16 -72 37 -92 61 -27 33 -34 36 -82 37 -50 0 -52 -1 -59 -30 -12 -57 -223 -488 -290 -594 -37 -58 -40 -123 -6 -151 150 -128 219 -171 339 -214 26 -10 58 -26 70 -36 22 -18 22 -19 4 -26 -10 -4 -26 -2 -36 4 -9 5 -39 14 -66 18 -78 11 -124 31 -169 73 -80 74 -166 131 -196 131 -24 0 -33 -7 -46 -35 -18 -39 -28 -42 -53 -20 -13 11 -15 26 -10 69 8 70 4 78 -51 118 -106 77 -208 169 -202 183 3 8 9 15 15 15 24 0 78 -37 125 -85 66 -69 120 -88 161 -58 26 19 108 154 134 218 6 17 37 80 69 140 67 128 139 305 139 340 0 24 -67 112 -130 170 -46 42 -90 139 -90 196 0 50 11 65 57 79 46 14 57 11 106 -20z m235 -588 c2 -12 -12 -57 -32 -99 -19 -43 -42 -113 -50 -155 -16 -78 -22 -288 -8 -288 11 0 51 68 135 226 41 78 86 159 101 180 l26 39 0 -42 c0 -31 -17 -74 -68 -174 -37 -74 -83 -167 -101 -207 -46 -100 -65 -122 -106 -122 -42 0 -56 17 -64 82 -8 73 -28 69 -61 -13 -30 -73 -58 -119 -71 -119 -14 0 -11 73 5 116 32 92 240 571 254 587 19 22 36 17 40 -11z m313 -185 c40 -31 51 -75 44 -176 -7 -96 -16 -121 -41 -121 -11 0 -14 22 -14 105 l0 105 -33 0 c-42 0 -57 -15 -57 -58 0 -18 -12 -63 -26 -98 -28 -69 -26 -107 4 -140 10 -11 33 -40 51 -66 33 -46 34 -50 22 -88 -14 -46 -42 -58 -100 -44 -32 8 -37 14 -53 64 -27 88 -23 189 13 311 30 102 76 190 108 209 22 13 63 12 82 -3z m3035 -32 c54 -27 124 -93 148 -139 31 -60 -11 -63 -62 -4 -70 80 -80 88 -112 88 -18 0 -33 -6 -37 -15 -14 -39 42 -157 120 -250 22 -27 27 -28 49 -17 21 11 34 9 106 -18 63 -25 90 -41 117 -72 59 -70 58 -158 -2 -158 -106 1 -264 127 -378 304 -37 58 -72 106 -76 106 -11 0 -12 3 7 -77 18 -76 13 -180 -12 -238 -8 -19 -14 -62 -14 -95 0 -51 4 -65 25 -85 35 -36 61 -32 75 10 22 66 90 54 90 -16 0 -38 -35 -77 -75 -85 -47 -9 -102 3 -126 27 -27 27 -39 24 -39 -10 0 -41 -9 -61 -29 -61 -31 0 -61 44 -92 136 -52 151 -103 245 -182 331 -39 43 -76 78 -82 78 -17 0 -17 -56 0 -119 10 -34 42 -124 72 -201 33 -85 57 -163 60 -199 6 -57 6 -58 -15 -47 -26 14 -42 44 -72 136 -18 56 -42 112 -67 154 -1 1 -6 0 -11 -3 -5 -3 -1 -44 9 -98 23 -117 24 -206 3 -236 -11 -16 -25 -22 -53 -22 -49 0 -79 24 -141 112 -99 141 -145 307 -123 449 13 82 29 103 76 102 58 -2 93 -28 137 -103 44 -76 67 -91 55 -37 -11 55 -17 137 -11 162 9 34 38 39 92 16 61 -27 72 -26 76 7 3 24 7 27 38 27 l35 0 6 -55 c6 -52 112 -313 153 -375 23 -35 36 -31 36 13 0 20 7 66 16 102 19 81 20 201 2 260 -12 40 -17 45 -46 48 -27 3 -34 -1 -42 -23 -9 -24 -5 -35 29 -86 42 -63 44 -83 9 -93 -32 -8 -50 7 -81 67 -32 64 -45 144 -28 175 30 57 144 67 177 16 18 -26 40 -32 47 -11 3 6 2 33 0 58 -3 26 0 55 6 67 16 30 73 29 137 -3z m-2666 -93 c83 -11 140 -94 140 -205 0 -36 4 -69 10 -72 10 -6 13 5 29 105 13 81 36 105 94 97 46 -6 78 -34 102 -88 10 -21 23 -39 28 -39 15 0 47 31 47 45 0 7 7 18 15 25 12 10 20 9 40 -4 23 -15 30 -27 50 -85 4 -10 14 -7 40 13 29 23 38 25 56 15 12 -6 66 -14 120 -18 129 -8 136 -15 145 -133 6 -82 5 -89 -24 -151 -17 -36 -48 -85 -70 -109 -21 -24 -44 -53 -51 -65 -15 -29 -14 -70 2 -76 19 -7 47 12 47 33 0 10 11 31 23 46 35 40 51 24 44 -42 -9 -83 -18 -94 -83 -94 -50 0 -59 3 -90 34 -52 52 -48 84 26 182 71 92 119 185 127 242 4 32 1 44 -16 61 -25 25 -63 27 -86 4 -13 -12 -16 -29 -12 -72 2 -31 8 -66 12 -78 13 -39 -22 -27 -52 18 -18 27 -28 58 -31 94 -5 61 -24 77 -48 40 -13 -20 -15 -61 -15 -259 1 -129 -3 -237 -8 -240 -5 -3 -14 1 -21 8 -6 8 -37 18 -68 22 -64 8 -83 18 -117 63 -19 27 -24 49 -30 139 -4 64 -2 133 4 172 11 63 10 65 -14 83 -18 14 -25 28 -25 54 0 19 -8 48 -17 64 -43 72 -103 4 -103 -116 0 -66 0 -67 49 -118 57 -60 71 -90 71 -152 0 -63 -15 -95 -43 -95 -66 0 -116 98 -126 245 -5 72 -9 90 -22 93 -13 2 -20 -10 -29 -50 -15 -62 -49 -133 -80 -165 -44 -47 -94 -19 -138 76 -21 45 -27 52 -33 36 -12 -35 -37 -129 -44 -167 -6 -39 -18 -48 -31 -26 -16 25 2 138 42 278 13 47 35 139 49 204 27 126 38 151 64 140 9 -4 32 -9 51 -12z m1687 -264 c0 -87 3 -102 51 -236 52 -144 73 -252 64 -325 -2 -20 -8 -40 -13 -42 -5 -3 -31 4 -59 16 -52 22 -127 96 -156 151 -16 30 -53 36 -45 7 16 -64 21 -91 21 -139 0 -30 7 -66 15 -80 20 -35 18 -77 -5 -100 -28 -28 -50 -16 -50 27 0 42 -22 163 -61 333 -16 69 -38 181 -48 250 -11 69 -23 139 -26 156 -5 24 -3 33 10 38 37 14 50 -3 84 -106 45 -136 95 -244 165 -350 53 -83 79 -104 88 -76 7 19 -5 63 -73 291 -61 206 -62 209 -46 243 14 29 22 34 51 34 l34 0 -1 -92z m-608 62 c27 -14 44 -64 37 -105 -7 -36 -36 -51 -36 -18 0 20 -28 53 -45 53 -29 0 -33 -24 -20 -105 8 -44 25 -145 39 -225 14 -80 31 -197 37 -260 22 -227 33 -254 90 -224 48 24 196 13 222 -17 22 -27 22 -56 -1 -68 -13 -7 -37 -4 -83 10 -81 25 -124 19 -177 -27 l-40 -34 -52 32 c-48 30 -59 32 -168 38 -98 5 -127 10 -181 34 -85 37 -167 62 -281 85 -95 20 -113 29 -125 70 l-7 24 79 -5 c57 -4 111 -17 184 -43 156 -56 194 -65 311 -75 59 -5 116 -14 127 -19 51 -28 70 1 46 69 -8 23 -15 67 -15 98 0 53 -9 121 -52 371 -20 118 -21 265 -3 313 12 31 78 48 114 28z"/><path id="pwbqQdQ7c" d="M2451 4224 c-46 -33 -61 -87 -61 -226 0 -126 0 -128 23 -128 37 0 91 33 98 60 7 25 1 273 -6 298 -6 17 -26 15 -54 -4z"/><path id="piofeoqbt" d="M2560 4228 c-1 -2 -3 -75 -6 -164 -6 -187 -4 -190 86 -196 l55 -3 3 58 c4 72 -19 209 -44 262 -17 35 -24 40 -57 43 -20 2 -37 2 -37 0z"/><path id="p2oHgsZY0" d="M2723 4093 c-3 -9 -1 -41 4 -72 6 -31 17 -87 24 -126 7 -38 18 -73 24 -77 18 -14 92 -9 105 7 27 33 -18 200 -70 255 -31 33 -77 41 -87 13z"/><path id="pDst6j8jQ" d="M2310 4050 c-16 -17 -35 -52 -44 -78 -17 -55 -31 -156 -22 -170 10 -17 87 8 96 32 10 27 30 227 24 238 -9 15 -26 8 -54 -22z"/><path id="pRR3zPtmC" d="M2933 3970 c-20 -8 -23 -17 -23 -67 0 -32 5 -75 11 -95 11 -43 29 -51 105 -46 l49 3 -1 42 c-1 63 -31 132 -68 154 -34 21 -41 22 -73 9z"/><path id="pY2EW5xP4" d="M2141 3889 c-49 -25 -81 -70 -81 -114 0 -84 98 -68 144 23 20 40 18 106 -4 110 -8 1 -35 -8 -59 -19z"/><path id="pwfobaPje" d="M2566 3817 c-16 -12 -19 -36 -24 -211 l-5 -197 28 -29 c22 -23 38 -30 65 -30 65 0 73 13 81 141 4 63 8 160 8 216 1 91 -1 103 -18 113 -28 14 -114 12 -135 -3z"/><path id="plxSfLIXn" d="M2428 3813 c-48 -8 -52 -21 -56 -222 -5 -218 0 -241 52 -241 41 0 72 33 82 86 3 19 3 113 -1 209 -8 195 -1 179 -77 168z"/><path id="pugScYdJF" d="M3114 3795 c-9 -23 28 -88 65 -113 45 -30 78 -37 96 -22 50 42 -40 150 -125 150 -18 0 -33 -6 -36 -15z"/><path id="p1Efl6o5jQ" d="M2779 3743 c-6 -16 -14 -51 -19 -79 -12 -74 -16 -313 -4 -322 5 -5 34 -16 65 -24 l57 -16 12 26 c18 41 33 206 27 312 -7 110 -20 130 -88 130 -34 0 -41 -4 -50 -27z"/><path id="p1HN8MAeSd" d="M1990 3743 c-35 -23 -90 -75 -101 -95 -13 -24 0 -48 25 -48 28 1 98 50 113 80 16 32 17 80 1 79 -7 0 -24 -7 -38 -16z"/><path id="p8Aqz8OHM" d="M2250 3741 c-15 -29 -32 -227 -28 -336 l3 -90 42 -3 c70 -5 74 9 71 244 l-3 199 -37 3 c-29 2 -39 -1 -48 -17z"/><path id="pLYLrXxcF" d="M2970 3676 c-13 -17 -34 -275 -25 -322 3 -20 14 -35 31 -43 38 -17 110 17 128 61 19 46 30 290 14 306 -18 18 -133 16 -148 -2z"/><path id="ppOO07WL2" d="M2103 3660 c-17 -10 -37 -28 -42 -39 -6 -11 -11 -78 -11 -153 0 -155 8 -178 66 -178 28 0 36 5 45 28 14 32 27 315 17 343 -9 24 -34 24 -75 -1z"/><path id="pOtTFxmlk" d="M3187 3623 c-4 -3 -7 -23 -7 -43 0 -21 -7 -57 -15 -80 -17 -49 -19 -107 -5 -144 25 -66 90 -86 135 -41 22 21 25 33 25 93 0 88 -22 153 -66 192 -34 29 -54 37 -67 23z"/><path id="pF9zv1hxa" d="M1941 3545 c-23 -26 -49 -61 -56 -78 -34 -82 -31 -211 6 -220 27 -7 85 44 98 86 14 47 19 249 5 254 -6 2 -30 -17 -53 -42z"/><path id="pdK0KwRp4" d="M2499 3349 c-16 -24 -88 -41 -114 -27 -12 7 -22 3 -40 -16 -20 -22 -33 -26 -78 -26 -29 0 -58 5 -63 10 -7 7 -16 4 -29 -10 -13 -14 -31 -20 -60 -20 -43 0 -66 12 -82 43 -9 17 -12 15 -31 -16 -22 -39 -53 -62 -93 -72 -19 -5 -34 0 -56 19 -59 49 -90 16 -103 -112 -19 -170 -20 -185 -26 -193 -3 -5 1 -9 9 -9 14 0 22 14 55 91 33 77 108 120 242 139 36 5 189 12 340 16 491 12 863 -25 906 -91 7 -11 24 -67 38 -124 26 -106 45 -141 78 -141 22 0 23 9 3 37 -29 41 -41 132 -34 268 5 114 -2 185 -18 185 -3 0 -16 -9 -30 -20 -18 -14 -40 -20 -72 -20 -50 1 -67 10 -95 54 l-18 28 -26 -25 c-52 -48 -122 -56 -164 -19 -16 13 -19 13 -36 -9 l-19 -23 -64 19 c-35 10 -73 24 -85 31 -13 8 -42 10 -85 7 -59 -5 -67 -3 -96 21 -37 31 -37 31 -54 5z"/><path id="p17786ut3h" d="M678 2209 c-27 -15 -23 -85 7 -145 30 -60 150 -186 173 -182 21 4 34 60 26 118 -8 67 -40 124 -96 175 -50 45 -77 53 -110 34z"/><path id="pS06O1Dsg" d="M1150 1021 c0 -40 20 -91 35 -91 42 0 15 119 -27 120 -5 0 -8 -13 -8 -29z"/><path id="ppZkQZtvh" d="M3511 1101 c-16 -29 -13 -147 4 -216 23 -91 113 -264 141 -271 41 -10 47 3 40 86 -3 42 -12 98 -20 126 -7 27 -23 85 -35 129 -35 127 -101 201 -130 146z"/><path id="pgSqpEIt1" d="M4509 1040 c-11 -7 -8 -14 11 -35 25 -27 70 -55 88 -55 6 0 13 7 16 16 12 31 -84 93 -115 74z"/><path id="pzTL27pn7" d="M1692 1253 c-8 -3 -23 -26 -34 -52 -17 -38 -20 -67 -20 -172 0 -147 4 -169 36 -169 34 0 44 17 76 128 45 156 46 167 20 223 -23 49 -40 58 -78 42z"/><path id="pHkh5P637" d="M2161 1101 c-25 -46 -52 -371 -35 -415 5 -12 20 -16 60 -16 82 0 86 19 58 240 -17 137 -26 170 -54 195 -17 16 -19 15 -29 -4z"/><path id="psx9b3h3Y" d="M1930 831 c0 -40 23 -76 41 -66 13 9 11 79 -3 93 -24 24 -38 13 -38 -27z"/></g></g></svg>